<svg width="128" height="62" viewBox="0 0 128 62" fill="none" xmlns="http://www.w3.org/2000/svg">
<path d="M11.3667 61.8524V57.184H10.34V56.439H11.3667V55.7579C11.3667 55.1165 11.5311 54.6271 11.86 54.2921C12.1889 53.9571 12.6445 53.7896 13.2266 53.7896C13.5711 53.7896 13.8711 53.827 14.1311 53.9043V54.6713C13.9823 54.6316 13.8422 54.6052 13.7178 54.5897C13.5911 54.5743 13.4689 54.5677 13.3467 54.5677C12.6044 54.5677 12.2333 54.9446 12.2333 55.6984V56.4412H14.0933V57.1862H12.2333V61.8546H11.3667V61.8524ZM15.4333 61.8524V56.439H16.3V57.3802C16.4711 57.0385 16.6911 56.7762 16.9578 56.5933C17.2245 56.4103 17.5334 56.3178 17.8845 56.3178C18.0533 56.3178 18.2133 56.3332 18.3666 56.3662V57.2259C18.2822 57.2149 18.1911 57.206 18.0956 57.1994C17.9978 57.1928 17.9044 57.1884 17.8134 57.1884C17.4155 57.1884 17.0911 57.3096 16.8445 57.5499C16.5978 57.7901 16.4155 58.1119 16.2978 58.5153V61.8501H15.4333V61.8524ZM22.2378 61.9735C21.6934 61.9735 21.2222 61.8524 20.8222 61.6098C20.4222 61.3674 20.1156 61.0324 19.8978 60.6092C19.6801 60.1838 19.5711 59.6989 19.5711 59.1523C19.5711 58.6012 19.6801 58.1141 19.8978 57.6887C20.1156 57.2633 20.4245 56.9305 20.8222 56.6881C21.22 56.4456 21.6934 56.3244 22.2378 56.3244H22.3467C22.8912 56.3244 23.3622 56.4456 23.7622 56.6881C24.1601 56.9305 24.4688 57.2655 24.6866 57.6887C24.9045 58.1141 25.0133 58.6012 25.0133 59.1523C25.0133 59.6989 24.9045 60.186 24.6866 60.6092C24.4688 61.0346 24.1601 61.3674 23.7622 61.6098C23.3644 61.8524 22.8912 61.9735 22.3467 61.9735H22.2378ZM22.2423 61.1778H22.34C22.8845 61.1778 23.3156 60.9928 23.6333 60.6224C23.9511 60.2521 24.1111 59.7606 24.1111 59.1479C24.1111 58.5307 23.9511 58.0391 23.6333 57.671C23.3156 57.303 22.8845 57.1179 22.34 57.1179H22.2423C21.6978 57.1179 21.2666 57.303 20.9488 57.671C20.6311 58.0391 20.4711 58.5307 20.4711 59.1479C20.4711 59.7606 20.6311 60.2521 20.9488 60.6224C21.2666 60.9928 21.6978 61.1778 22.2423 61.1778ZM26.7823 61.8524V56.439H27.6488V57.4463C27.8467 57.098 28.0978 56.8225 28.4067 56.622C28.7134 56.4214 29.0711 56.32 29.4755 56.32H29.5844C30.4911 56.32 31.0755 56.752 31.3333 57.6138C31.5423 57.2149 31.8133 56.8996 32.1488 56.6682C32.4845 56.4368 32.8689 56.32 33.3044 56.32H33.42C34.0333 56.32 34.5022 56.525 34.8267 56.9327C35.1511 57.3404 35.3111 57.9246 35.3111 58.6828V61.8546H34.4445V58.8062C34.4445 57.6821 34.0289 57.1201 33.2 57.1201H33.1022C32.7111 57.1201 32.3755 57.2479 32.0933 57.5057C31.8111 57.7636 31.6067 58.0899 31.48 58.4844V61.8524H30.6134V58.8062C30.6134 57.6821 30.2 57.1201 29.3734 57.1201H29.2688C28.8778 57.1201 28.5422 57.2479 28.2622 57.5057C27.9822 57.7636 27.7778 58.0899 27.6511 58.4844V61.8524H26.7823ZM48.3244 54.0475V55.0878C48.3244 55.1561 48.2778 55.2003 48.2111 55.2003H43.7067V57.3272H47.4244C47.4933 57.3272 47.5378 57.3735 47.5378 57.4396V58.48C47.5378 58.5483 47.4911 58.5924 47.4244 58.5924H43.7067V61.7377C43.7067 61.806 43.66 61.8501 43.5933 61.8501H42.4645C42.3955 61.8501 42.3511 61.8038 42.3511 61.7377V54.0475C42.3511 53.9792 42.3977 53.9351 42.4645 53.9351H48.2111C48.28 53.9351 48.3244 53.9814 48.3244 54.0475ZM57.5156 61.8524H56.2733C56.2045 61.8524 56.1599 61.8193 56.1422 61.7509C55.9778 61.1007 55.7777 60.4152 55.5489 59.7253H51.7334C51.5044 60.4152 51.3066 61.1007 51.1467 61.7509C51.1289 61.8193 51.0845 61.8524 51.0155 61.8524H49.8178C49.7377 61.8524 49.6933 61.806 49.7155 61.7289C50.4334 59.2074 51.5289 56.4236 52.6355 54.0828C52.6867 53.9748 52.7489 53.9351 52.8578 53.9351H54.4777C54.5867 53.9351 54.6489 53.9748 54.7 54.0828C55.8177 56.4192 56.8956 59.2074 57.62 61.7289C57.6422 61.8082 57.5956 61.8524 57.5156 61.8524ZM55.1266 58.5042C54.7111 57.3625 54.2489 56.2186 53.7756 55.1782H53.5066C53.0334 56.2186 52.5666 57.3603 52.1489 58.5042H55.1266ZM59.5555 57.962C59.5555 55.5066 61.1866 53.7874 63.5133 53.7874H63.6844C65.1445 53.7874 66.2733 54.5235 66.8711 55.5859C66.9111 55.6544 66.9 55.7094 66.8311 55.7447L65.8267 56.2362C65.7578 56.2693 65.6733 56.2693 65.6267 56.1854C65.2045 55.4626 64.5711 55.0768 63.6378 55.0768H63.4666C62.0022 55.0768 60.9912 56.2296 60.9912 57.9047C60.9912 59.5843 61.9823 60.7106 63.4666 60.7106H63.6378C64.5956 60.7106 65.1534 60.3887 65.5822 59.8973C65.64 59.8356 65.7022 59.8245 65.7712 59.8576L66.8022 60.3557C66.8422 60.3777 66.86 60.4064 66.86 60.4351C66.86 60.4638 66.8489 60.4857 66.8267 60.5188C66.1933 61.4357 65.0533 62 63.6622 62H63.4911C61.1244 62 59.5555 60.3887 59.5555 57.962ZM75.9555 60.6996V61.7399C75.9555 61.8082 75.9089 61.8524 75.8422 61.8524H69.8555C69.7867 61.8524 69.7422 61.806 69.7422 61.7399V54.0497C69.7422 53.9814 69.7889 53.9373 69.8555 53.9373H75.74C75.8089 53.9373 75.8533 53.9836 75.8533 54.0497V55.09C75.8533 55.1584 75.8067 55.2025 75.74 55.2025H71.0978V57.2611H74.8733C74.9422 57.2611 74.9866 57.3074 74.9866 57.3735V58.4028C74.9866 58.4711 74.94 58.5153 74.8733 58.5153H71.0978V60.5849H75.8422C75.9089 60.5849 75.9555 60.6313 75.9555 60.6996ZM86.2623 59.6812C86.2623 61.0677 85.1911 61.8524 83.2977 61.8524H79.3755C79.3067 61.8524 79.2622 61.806 79.2622 61.7399V54.0497C79.2622 53.9814 79.3089 53.9373 79.3755 53.9373H82.9511C84.7933 53.9373 85.7955 54.6602 85.7955 55.9849C85.7955 56.8556 85.3511 57.4264 84.4489 57.6931C85.7156 57.9554 86.2623 58.7093 86.2623 59.6812ZM82.9222 55.1672H80.6178V57.2942H82.9222C83.9533 57.2942 84.4267 56.9614 84.4267 56.2318C84.4267 55.5022 83.9533 55.1672 82.9222 55.1672ZM84.8711 59.5622C84.8711 58.826 84.38 58.4932 83.3022 58.4932H80.6178V60.6202H83.3022C84.3978 60.6202 84.8711 60.3028 84.8711 59.5622ZM88.6511 57.8937C88.6511 55.5066 90.2467 53.7874 92.7556 53.7874H92.9266C95.4355 53.7874 97.0311 55.5066 97.0311 57.8937C97.0311 60.2808 95.4355 62 92.9266 62H92.7556C90.2489 62 88.6511 60.2808 88.6511 57.8937ZM92.9288 60.7106C94.5645 60.7106 95.5978 59.5974 95.5978 57.8937C95.5978 56.1921 94.5667 55.0768 92.9288 55.0768H92.7578C91.1222 55.0768 90.0889 56.1899 90.0889 57.8937C90.0889 59.5952 91.12 60.7106 92.7578 60.7106H92.9288ZM99.3488 57.8937C99.3488 55.5066 100.944 53.7874 103.453 53.7874H103.624C106.133 53.7874 107.728 55.5066 107.728 57.8937C107.728 60.2808 106.133 62 103.624 62H103.453C100.944 62 99.3488 60.2808 99.3488 57.8937ZM103.624 60.7106C105.26 60.7106 106.293 59.5974 106.293 57.8937C106.293 56.1921 105.262 55.0768 103.624 55.0768H103.453C101.818 55.0768 100.784 56.1899 100.784 57.8937C100.784 59.5952 101.816 60.7106 103.453 60.7106H103.624ZM117.564 61.8524H116.093C115.996 61.8524 115.955 61.8303 115.893 61.7554C114.863 60.5497 113.642 59.3528 112.604 58.4689H111.942V61.7377C111.942 61.806 111.895 61.8501 111.829 61.8501H110.7C110.631 61.8501 110.587 61.8038 110.587 61.7377V54.0475C110.587 53.9792 110.633 53.9351 110.7 53.9351H111.829C111.897 53.9351 111.942 53.9814 111.942 54.0475V57.1685H112.616C113.726 56.1723 114.754 55.0989 115.591 54.0188C115.649 53.9461 115.693 53.9351 115.762 53.9351H117.154C117.223 53.9351 117.255 53.9682 117.255 54.0144C117.255 54.0365 117.245 54.0652 117.215 54.0981C115.989 55.597 114.776 56.8247 113.651 57.7746C115.065 58.9627 116.405 60.2852 117.625 61.7112C117.689 61.7839 117.655 61.8524 117.564 61.8524ZM128 0H121.206V36.0022H128V0ZM96.2156 22.5262C96.2156 18.0519 99.0534 14.6333 103.616 14.6333C107.976 14.6333 111.067 18.0011 111.067 22.5262C111.067 27.102 108.126 30.47 103.616 30.47C99.2067 30.47 96.2156 27.102 96.2156 22.5262ZM111.171 36.0022H117.66V9.10085H111.069V11.5143C109.7 10.0068 106.811 8.64901 103.211 8.64901C94.9489 8.64901 89.4222 14.5825 89.4222 22.5262C89.4222 30.8733 94.9978 36.4541 103.211 36.4541C107.571 36.4541 110.155 34.6445 111.169 33.3375V36.0022H111.171ZM83.5933 4.57578H76.8V9.10085H74.1645V15.085H76.8V28.5104C76.8 33.84 79.6378 36.2535 85.0622 36.2535C86.8867 36.2535 88.2556 36.053 88.5089 36.0022V30.0687H87.0378C84.4533 30.0687 83.5911 29.0637 83.5911 26.4496V15.085H88.3555V9.10085H83.5911V4.57578H83.5933ZM72.3889 9.05016C72.2378 8.99947 71.9845 8.94878 71.4755 8.94878C68.6355 8.94878 67.5711 10.6592 67.1156 11.3116V9.10085H60.7778V36.0022H67.5711V19.8614C67.5711 17.1459 68.6355 15.5369 72.3866 15.2856V9.05016H72.3889ZM36.8533 22.5769C36.8533 18.0519 39.7422 14.7325 44.2044 14.7325C48.5645 14.7325 51.6066 18.1003 51.6066 22.5769C51.6066 27.0535 48.7178 30.3708 44.2555 30.3708C39.8956 30.3685 36.8533 27.102 36.8533 22.5769ZM30.06 22.6254C30.06 30.569 35.7378 36.4519 44.2044 36.4519C52.5689 36.4519 58.3978 30.4192 58.3978 22.524C58.3978 14.5803 52.7711 8.6468 44.2044 8.6468C36.0423 8.64901 30.06 14.6311 30.06 22.6254ZM6.59111 22.5769C6.59111 18.0011 9.43111 14.6333 14.0422 14.6333C18.5533 14.6333 21.5444 18.0011 21.5444 22.5769C21.5444 27.1526 18.7066 30.4722 14.0933 30.4722C9.58222 30.47 6.59111 27.1526 6.59111 22.5769ZM6.79333 33.8885C8.06 34.995 10.6977 36.4519 14.4489 36.4519C23.0667 36.4519 28.34 30.2671 28.34 22.4733C28.34 14.3776 22.9667 8.6468 14.7533 8.6468C9.83555 8.6468 7.50445 10.7077 6.59111 11.715V9.10085H0V44.0451H6.79333V33.8885Z" fill="white"/>
</svg>
